<?xml version="1.0"?>
<svg width="512" height="512" xmlns="http://www.w3.org/2000/svg" xmlns:svg="http://www.w3.org/2000/svg">
 <title>Slice 1</title>Created with Sketch (http://www.bohemiancoding.com/sketch)

 <g>
  <title>Layer 1</title>
  <g stroke="null" fill-rule="evenodd" fill="none" id="Page 1">
   <g stroke="null" id="Layer_1">
    <path stroke="null" fill="#131313" id="Shape" d="m363.05899,21.829229l-31.327881,0l32.579071,33.631487l0,16.008736l-67.104706,0l0,-18.743046l32.572754,0l-32.572754,-33.632706l0,-16.03167l65.853516,0l0,18.767199l0,0zm-79.154755,0l-31.32785,0l32.57782,33.631487l0,16.008736l-67.104767,0l0,-18.743046l32.576553,0l-32.576553,-33.632706l0,-16.03167l65.854797,0l0,18.767199l0,0zm-78.380646,0.761745l-33.804916,0l0,29.350756l33.804916,0l0,19.527721l-57.831253,0l0,-68.407421l57.831253,0l0,19.528944l0,0zm0,0"/>
    <path stroke="null" fill="#1572B6" id="Shape" d="m101.626823,469.229919l-34.351822,-366.531303l377.449974,0l-34.383514,366.472099l-154.572418,40.767303l-154.14222,-40.708099zm0,0"/>
    <path stroke="null" fill="#33A9DC" id="Shape" d="m256.002563,478.777679l124.8992,-32.942169l29.385101,-313.16684l-154.284302,0l0,346.109009zm0,0"/>
    <g stroke="null" id="Group">
     <path stroke="null" fill="#FFFFFF" id="Shape" d="m256.001251,265.46109l62.52771,0l4.318207,-46.033066l-66.845917,0l0,-44.955078l0.163696,0l118.324768,0l-1.133179,12.061172l-11.613403,123.878387l-105.741882,0l0,-44.951416zm0,0"/>
     <path stroke="null" fill="#EBEBEB" id="Shape" d="m256.284241,382.207367l-0.206848,0.055542l-52.625977,-13.51947l-3.36528,-35.851532l-25.570679,0l-21.861496,0l6.618866,70.581604l96.793121,25.563751l0.218292,-0.057983l0,-46.771912zm0,0"/>
     <path stroke="null" fill="#FFFFFF" id="Shape" d="m314.512634,308.51004l-5.689941,60.203217l-52.702179,13.532745l0,46.769501l96.870605,-25.541992l0.710602,-7.593323l8.220306,-87.370148l-47.409393,0zm0,0"/>
     <path stroke="null" fill="#EBEBEB" id="Shape" d="m256.164948,174.472946l0,27.920227l0,16.923782l0,0.111069l-113.987473,0l-0.150986,0l-0.947922,-10.104309l-2.153442,-22.789597l-1.129333,-12.061172l118.369156,0zm0,0"/>
     <path stroke="null" fill="#EBEBEB" id="Shape" d="m256.001251,265.465912l0,27.921417l0,16.921387l0,0.111053l-51.808777,0l-0.151001,0l-0.946655,-10.103058l-2.154663,-22.789581l-1.129425,-12.061218l56.190521,0zm0,0"/>
    </g>
   </g>
  </g>
 </g></svg>